<svg width="25" height="25" viewBox="0 0 25 25" fill="none" xmlns="http://www.w3.org/2000/svg">
<g id="SVG">
<path id="Vector" fill-rule="evenodd" clip-rule="evenodd" d="M9.84624 12.499L0.553245 3.205C0.216109 2.84991 0.0309888 2.37719 0.0373378 1.88758C0.0436867 1.39798 0.241003 0.930219 0.587233 0.583988C0.933464 0.237758 1.40123 0.0404416 1.89083 0.0340927C2.38043 0.0277437 2.85315 0.212864 3.20825 0.55L12.5002 9.843L21.7912 0.553C22.1463 0.215864 22.6191 0.0307437 23.1087 0.0370927C23.5983 0.0434416 24.066 0.240758 24.4123 0.586988C24.7585 0.933219 24.9558 1.40098 24.9622 1.89058C24.9685 2.38019 24.7834 2.85291 24.4462 3.208L15.1562 12.498L24.4492 21.792C24.7864 22.1471 24.9715 22.6198 24.9652 23.1094C24.9588 23.599 24.7615 24.0668 24.4153 24.413C24.069 24.7592 23.6013 24.9566 23.1117 24.9629C22.6221 24.9693 22.1493 24.7841 21.7942 24.447L12.5002 15.154L3.20525 24.45C2.85015 24.7871 2.37743 24.9723 1.88783 24.9659C1.39823 24.9596 0.930464 24.7622 0.584233 24.416C0.238003 24.0698 0.0406867 23.602 0.0343378 23.1124C0.0279888 22.6228 0.213109 22.1501 0.550245 21.795L9.84624 12.499Z" fill="white"/>
</g>
</svg>
